<svg xmlns="http://www.w3.org/2000/svg" width="160" height="65" fill="none" viewBox="0 0 160 65">
    <path fill="#fff" d="M37.52 19.306c-1.003-2.641-2.46-2.914-5.374-8.105C29.141 5.737 27.593 0 27.593 0s-2.914 8.742-6.83 13.66c-3.642 4.735-7.65 7.194-11.292 13.204C5.01 34.422 6.193 41.07 6.193 41.07s3.278-4.371 8.105-6.92c5.737-3.006 10.472-1.822 16.027-4.372 3.552-1.548 9.107-5.1 7.194-10.472zm-9.745 1.548c-1.366.182-4.28 1.001-4.28 1.001s-.91 1.366-1.184 4.007c-.09 1.184-.364 3.279-.364 3.279s-.728-.091-1.548-2.186c-.82-2.094-1.184-2.914-1.184-2.914s-1.548.82-2.55 1.73c-.82.82-1.912 2.004-1.912 2.004s-.637-.638 0-2.186c.364-.91 1.002-1.73 1.002-1.73s-.547-.273-.91-.364c-.456-.091-1.094-.091-1.094-.091s.547-1.457 2.732-2.55c2.46-1.184 2.46-.638 3.643-1.73 2.368-2.095 5.92-9.562 5.92-9.562s.181 2.276-.365 5.19c-.182 1.366-.91 3.188-.91 3.188s2.367 0 4.735.728c1.366.456 2.276 2.095 2.276 2.095s-2.914-.091-4.007.09z"/>
    <path fill="#fff" d="M6.557 46.534s-.637-4.462 3.188-6.557c6.101-3.278 13.842-1.184 20.125-3.551 8.56-3.188 9.47-14.57 9.47-14.57s5.373 14.205-9.197 20.033c-9.653 3.825-15.299.091-19.488 1.366-2.367.547-4.098 3.279-4.098 3.279z"/>
    <path fill="#fff" d="M42.254 25.953s3.096 15.845-11.747 22.31c-8.105 3.552-18.213-5.463-21.765-2.64-1.912 1.548.455 3.733.455 3.733s0-1.73 2.095-1.366c3.916.638 12.476 9.38 23.312 3.643 14.389-7.74 7.65-25.68 7.65-25.68z"/>
    <path fill="#fff" d="M45.35 32.874s2.733 20.216-13.477 24.223c-11.747 2.914-16.938-8.105-21.582-7.376-2.368.364-1.093 2.458-1.093 2.458s.091-.91 1.822-.09c5.828 2.55 9.197 10.29 21.673 7.011C49.904 54.547 45.35 32.874 45.35 32.874z"/>
    <path fill="#fff" d="M13.933 57.19s-.273-3.278-2.276-4.097c-1.913-.82-1.73 2.003-1.73 2.003s.728-1.092 1.639-.455c1.001.729 2.367 2.55 2.367 2.55zM57.645 28.504c.364 0 .728-.09 1.001-.364.273-.273.364-.637.364-1.184 0-.546-.09-.91-.364-1.183-.182-.274-.546-.365-1.093-.365h-.82v3.096h.912zm.637-4.553c.546 0 .91.091 1.275.273.364.183.637.365.82.638.182.273.364.637.455 1.002.09.364.182.728.182 1.092 0 .547-.091 1.002-.273 1.366-.182.364-.364.729-.638.91-.273.274-.637.456-1.001.547-.365.091-.82.182-1.275.182h-1.093v4.007H54.73V23.951h3.552zM65.839 28.322c.455 0 .91-.09 1.092-.364.274-.273.365-.637.365-1.184 0-.91-.456-1.366-1.457-1.366h-1.002v2.914h1.002zm.91-4.37c.82 0 1.548.181 2.004.637.455.455.728 1.092.728 1.912 0 .637-.182 1.184-.455 1.64-.273.455-.729.728-1.275.819.546.09.91.273 1.093.455.273.273.364.637.455 1.184 0 .182 0 .364.091.637v.729c0 .546 0 .91.091 1.184.091.273.182.455.365.546v.091H67.66c-.182.091-.273-.09-.273-.273 0-.182-.091-.364-.091-.546v-2.004c0-.364-.091-.728-.274-.91-.182-.183-.455-.365-.91-.365h-1.093v4.28h-2.003V23.951h3.733zM71.85 23.951h2.003v10.017H71.85V23.951zM81.048 30.781h.09v-6.83h1.822v10.017h-2.276l-2.55-7.012v7.012h-1.822V23.951h2.277l2.459 6.83zM91.156 25.59H88.97v8.378h-2.003V25.59H84.78v-1.639h6.375v1.64zM98.623 25.59H94.98v2.368h3.46v1.64h-3.46v2.731h3.825v1.64h-5.828V23.95h5.646v1.64zM103.722 32.511c.364 0 .637-.09.911-.182.182-.091.364-.364.546-.637.091-.274.182-.638.273-1.093 0-.456.091-1.002.091-1.73 0-.547 0-1.093-.091-1.548 0-.456-.091-.82-.273-1.093-.091-.273-.273-.547-.546-.638-.274-.182-.547-.182-.911-.182h-.911v7.103h.911zm.364-8.56c.729 0 1.275.091 1.73.364.456.274.729.547 1.002 1.002.273.456.364.91.455 1.548.091.638.091 1.275.091 2.004 0 .91-.091 1.639-.182 2.276-.091.638-.273 1.184-.546 1.64-.273.455-.637.728-1.093.91-.455.182-1.002.273-1.639.273h-3.187V23.951h3.369zM115.378 23.951l1.093 7.376 1.184-7.376h2.003l1.184 7.376 1.093-7.376h2.003l-1.821 10.017h-2.276l-1.184-7.285-1.184 7.285h-2.277l-1.821-10.017h2.003zM125.76 23.951h2.003v10.017h-2.003V23.951zM136.141 25.59h-2.276v8.378h-2.004V25.59h-2.185v-1.639h6.465v1.64zM139.966 23.951v3.825h2.367V23.95h2.004v10.017h-2.004v-4.462h-2.367v4.462h-2.095V23.951h2.095zM57.644 53.455c0 .91.455 2.732 3.46 2.732 1.64 0 3.37-.364 3.37-2.186 0-1.366-1.185-1.639-2.915-2.094l-1.73-.456c-2.64-.637-5.19-1.275-5.19-5.008 0-1.912 1.001-5.19 6.283-5.19 5.008 0 6.374 3.369 6.374 5.463h-3.278c-.091-.729-.364-2.55-3.37-2.55-1.274 0-2.822.456-2.822 2.004 0 1.366 1.001 1.639 1.73 1.73l4.007 1.002c2.185.546 4.28 1.548 4.28 4.553 0 5.1-5.009 5.555-6.466 5.555-5.919 0-7.012-3.552-7.012-5.646h3.279v.09zM77.677 56.096c1.822 0 4.462-1.184 4.462-5.92 0-4.735-2.55-5.919-4.462-5.919-1.821 0-4.462 1.184-4.462 5.92 0 4.826 2.641 5.919 4.462 5.919zm0-14.844c2.186 0 7.832 1.002 7.832 8.924 0 7.923-5.646 8.925-7.832 8.925-2.185 0-7.831-1.002-7.831-8.925 0-7.922 5.646-8.924 7.831-8.924zM94.433 58.738h-3.369v-6.465l-5.646-10.564h4.007l3.37 7.376 3.278-7.376h3.824l-5.464 10.654v6.375zM109.733 58.738h-3.37V41.709h3.37v17.029zM124.212 41.709h3.187v17.029h-3.461l-6.647-12.111v12.111h-3.187V41.709h3.551l6.466 11.838h.091V41.71zM135.139 58.738h-3.369V41.709h3.369v6.92l6.283-6.92h4.371l-6.647 7.012 7.012 10.017h-4.371l-5.009-7.467-1.639 1.639v5.828zM153.809 64.929v-3.096h-1.184v-.638h3.187v.638h-1.184v3.096h-.819zM159.271 64.929v-3.096l-.729 3.096h-.819l-.729-3.096v3.096h-.728v-3.734h1.183l.729 3.005.637-3.005h1.184v3.734h-.728z"/>
    <path fill="#fff" d="M149.801 18.394H39.704c-.455 0-.91.364-.91.91 0 .456.364.911.91.911h109.277V63.38H1.821V20.215H13.66c.455 0 .91-.364.91-.91 0-.456-.364-.911-.91-.911H0v46.534h150.62V18.394h-.819z"/>
    <path fill="#fff" d="M50.176 19.305V64.11h1.73V19.305h-1.73z"/>
</svg>
